Coordinates
nRows=259
nColumns=2
inDegrees=yes
endheader
time	ankle_angle_r	
3.22681	  9.360212	
3.26008	  9.363951	
3.29335	  9.363023	
3.32661	  9.360946	
3.35988	  9.362874	
3.39315	  9.367651	
3.42641	  9.370780	
3.45968	  9.371945	
3.49294	  9.374848	
3.52621	  9.378574	
3.55948	  9.378026	
3.59274	  9.374050	
3.62601	  9.370514	
3.65927	  9.366029	
3.69254	  9.359809	
3.72581	  9.353835	
3.75907	  9.345387	
3.79234	  9.328994	
3.8256	  9.302427	
3.85887	  9.270569	
3.89214	  9.247907	
3.9254	  9.246810	
3.95867	  9.262868	
3.99194	  9.280144	
4.0252	  9.285635	
4.05847	  9.279359	
4.09173	  9.275156	
4.125	  9.284133	
4.15827	  9.300246	
4.19153	  9.311468	
4.2248	  9.313909	
4.25806	  9.309577	
4.29133	  9.303243	
4.3246	  9.298627	
4.35786	  9.293426	
4.39113	  9.285544	
4.4244	  9.278378	
4.45766	  9.277591	
4.49093	  9.285881	
4.52419	  9.298239	
4.55746	  9.307617	
4.59073	  9.312632	
4.62399	  9.313009	
4.65726	  9.306190	
4.69052	  9.291480	
4.72379	  9.269793	
4.75706	  9.243967	
4.79032	  9.224802	
4.82359	  9.221938	
4.85685	  9.229565	
4.89012	  9.238856	
4.92339	  9.250488	
4.95665	  9.264143	
4.98992	  9.275212	
5.02319	  9.284076	
5.05645	  9.297256	
5.08972	  9.318345	
5.12298	  9.339798	
5.15625	  9.350781	
5.18952	  9.352037	
5.22278	  9.351562	
5.25605	  9.353016	
5.28931	  9.356311	
5.32258	  9.358719	
5.35585	  9.356802	
5.38911	  9.353897	
5.42238	  9.356785	
5.45565	  9.364600	
5.48891	  9.369547	
5.52218	  9.366148	
5.55544	  9.356964	
5.58871	  9.349158	
5.62198	  9.344462	
5.65524	  9.340284	
5.68851	  9.341091	
5.72177	  9.353469	
5.75504	  9.372296	
5.78831	  9.385954	
5.82157	  9.389112	
5.85484	  9.381861	
5.8881	  9.362983	
5.92137	  9.332844	
5.95464	  9.301321	
5.9879	  9.281818	
6.02117	  9.274752	
6.05444	  9.266647	
6.0877	  9.248305	
6.12097	  9.225997	
6.15423	  9.212645	
6.1875	  9.214519	
6.22077	  9.227020	
6.25403	  9.238421	
6.2873	  9.239427	
6.32056	  9.230466	
6.35383	  9.220893	
6.3871	  9.222175	
6.42036	  9.232398	
6.45363	  9.236636	
6.4869	  9.233587	
6.52016	  9.236991	
6.55343	  9.250406	
6.58669	  9.264968	
6.61996	  9.273124	
6.65323	  9.273336	
6.68649	  9.269394	
6.71976	  9.267366	
6.75302	  9.270526	
6.78629	  9.277523	
6.81956	  9.284018	
6.85282	  9.288802	
6.88609	  9.296786	
6.91935	  9.307456	
6.95262	  9.312938	
6.98589	  9.312859	
7.01915	  9.308917	
7.05242	  9.294642	
7.08569	  9.271508	
7.11895	  9.253901	
7.15222	  9.250598	
7.18548	  9.261678	
7.21875	  9.283727	
7.25202	  9.305235	
7.28528	  9.315053	
7.31855	  9.316140	
7.35181	  9.318286	
7.38508	  9.329214	
7.41835	  9.352065	
7.45161	  9.378136	
7.48488	  9.393318	
7.51815	  9.393722	
7.55141	  9.384908	
7.58468	  9.373378	
7.61794	  9.361984	
7.65121	  9.351223	
7.68448	  9.346374	
7.71774	  9.352680	
7.75101	  9.364258	
7.78427	  9.372995	
7.81754	  9.377720	
7.85081	  9.378219	
7.88407	  9.375472	
7.91734	  9.369939	
7.9506	  9.358096	
7.98387	  9.345658	
8.01714	  9.344472	
8.0504	  9.350617	
8.08367	  9.351355	
8.11694	  9.342500	
8.1502	  9.327606	
8.18347	  9.315792	
8.21673	  9.312991	
8.25	  9.313117	
8.28327	  9.312673	
8.31653	  9.316125	
8.3498	  9.317460	
8.38306	  9.307122	
8.41633	  9.292067	
8.4496	  9.282848	
8.48286	  9.279679	
8.51613	  9.278760	
8.5494	  9.277279	
8.58266	  9.278245	
8.61593	  9.285057	
8.64919	  9.289449	
8.68246	  9.283197	
8.71573	  9.271827	
8.74899	  9.263416	
8.78226	  9.262052	
8.81552	  9.273602	
8.84879	  9.297197	
8.88206	  9.321706	
8.91532	  9.338186	
8.94859	  9.339582	
8.98185	  9.324951	
9.01512	  9.311990	
9.04839	  9.319302	
9.08165	  9.341709	
9.11492	  9.359205	
9.14819	  9.360519	
9.18145	  9.351973	
9.21472	  9.345787	
9.24798	  9.345125	
9.28125	  9.346630	
9.31452	  9.348159	
9.34778	  9.349576	
9.38105	  9.352690	
9.41431	  9.356887	
9.44758	  9.357802	
9.48085	  9.355251	
9.51411	  9.353266	
9.54738	  9.352564	
9.58065	  9.351345	
9.61391	  9.349728	
9.64718	  9.349201	
9.68044	  9.351124	
9.71371	  9.355787	
9.74698	  9.361308	
9.78024	  9.365279	
9.81351	  9.367003	
9.84677	  9.367951	
9.88004	  9.370638	
9.91331	  9.373730	
9.94657	  9.373190	
9.97984	  9.369394	
10.0131	  9.362815	
10.0464	  9.353506	
10.0796	  9.349615	
10.1129	  9.355602	
10.1462	  9.362539	
10.1794	  9.364798	
10.2127	  9.364564	
10.246	  9.359896	
10.2792	  9.344897	
10.3125	  9.316904	
10.3458	  9.283310	
10.379	  9.257654	
10.4123	  9.243833	
10.4456	  9.237536	
10.4788	  9.238770	
10.5121	  9.248765	
10.5454	  9.262960	
10.5786	  9.273419	
10.6119	  9.275343	
10.6452	  9.271919	
10.6784	  9.268050	
10.7117	  9.260007	
10.745	  9.243511	
10.7782	  9.224954	
10.8115	  9.214072	
10.8448	  9.216229	
10.878	  9.231739	
10.9113	  9.252590	
10.9446	  9.267507	
10.9778	  9.276112	
11.0111	  9.286307	
11.0444	  9.298377	
11.0776	  9.305587	
11.1109	  9.307359	
11.1442	  9.309457	
11.1774	  9.314014	
11.2107	  9.318790	
11.244	  9.323086	
11.2772	  9.328709	
11.3105	  9.335438	
11.3437	  9.339555	
11.377	  9.339113	
11.4103	  9.336174	
11.4435	  9.333817	
11.4768	  9.332831	
11.5101	  9.331543	
11.5433	  9.330622	
11.5766	  9.332072	
11.6099	  9.333955	
11.6431	  9.334944	
11.6764	  9.336235	
11.7097	  9.335047	
11.7429	  9.329847	
11.7762	  9.328716	
11.8095	  9.337080	
